<svg width="24" height="24" viewBox="0 0 24 24" fill="none" xmlns="http://www.w3.org/2000/svg">
<path fill-rule="evenodd" clip-rule="evenodd" d="M10.0031 14.9016C7.19018 14.9016 4.90312 17.1886 4.90312 20.0016V21.0016C4.90312 21.4986 4.50018 21.9016 4.00312 21.9016C3.50606 21.9016 3.10312 21.4986 3.10312 21.0016V20.0016C3.10312 16.1945 6.19606 13.1016 10.0031 13.1016H14.0031C17.8102 13.1016 20.9031 16.1945 20.9031 20.0016V21.0016C20.9031 21.4986 20.5002 21.9016 20.0031 21.9016C19.5061 21.9016 19.1031 21.4986 19.1031 21.0016V20.0016C19.1031 17.1886 16.8161 14.9016 14.0031 14.9016H10.0031Z" fill="#141B34"/>
<path fill-rule="evenodd" clip-rule="evenodd" d="M12.0062 3.90156C10.2933 3.90156 8.90623 5.28862 8.90623 7.00156C8.90623 8.71451 10.2933 10.1016 12.0062 10.1016C13.7192 10.1016 15.1062 8.71451 15.1062 7.00156C15.1062 5.28862 13.7192 3.90156 12.0062 3.90156ZM7.10623 7.00156C7.10623 4.29451 9.29918 2.10156 12.0062 2.10156C14.7133 2.10156 16.9062 4.29451 16.9062 7.00156C16.9062 9.70862 14.7133 11.9016 12.0062 11.9016C9.29918 11.9016 7.10623 9.70862 7.10623 7.00156Z" fill="#141B34"/>
</svg>
