<svg width="21" height="20" viewBox="0 0 21 20" fill="none" xmlns="http://www.w3.org/2000/svg">
<path d="M10.5 2.49953C8.9529 2.49953 7.46917 3.11411 6.37521 4.20808C5.28125 5.30204 4.66667 6.78577 4.66667 8.33286C4.66667 10.7179 6.15167 13.0187 7.78167 14.8012C8.61512 15.7092 9.52453 16.5445 10.5 17.2979C10.6456 17.1862 10.8164 17.0501 11.0125 16.8895C11.7957 16.2464 12.5328 15.5491 13.2183 14.8029C14.8483 13.0187 16.3333 10.7187 16.3333 8.33286C16.3333 6.78577 15.7188 5.30204 14.6248 4.20808C13.5308 3.11411 12.0471 2.49953 10.5 2.49953ZM10.5 19.3445L10.0275 19.0195L10.025 19.0179L10.02 19.0137L10.0033 19.002L9.94083 18.9579L9.71583 18.7937C8.57572 17.9369 7.51656 16.9773 6.55167 15.927C4.84833 14.062 3 11.3629 3 8.33203C3 6.34291 3.79018 4.43525 5.1967 3.02873C6.60322 1.62221 8.51088 0.832031 10.5 0.832031C12.4891 0.832031 14.3968 1.62221 15.8033 3.02873C17.2098 4.43525 18 6.34291 18 8.33203C18 11.3629 16.1517 14.0629 14.4483 15.9254C13.4837 16.9756 12.4248 17.9351 11.285 18.792C11.19 18.863 11.0942 18.9327 10.9975 19.0012L10.98 19.0129L10.975 19.017L10.9733 19.0179L10.5 19.3445ZM10.5 6.6662C10.058 6.6662 9.63405 6.84179 9.32149 7.15435C9.00893 7.46691 8.83333 7.89084 8.83333 8.33286C8.83333 8.77489 9.00893 9.19882 9.32149 9.51138C9.63405 9.82394 10.058 9.99953 10.5 9.99953C10.942 9.99953 11.366 9.82394 11.6785 9.51138C11.9911 9.19882 12.1667 8.77489 12.1667 8.33286C12.1667 7.89084 11.9911 7.46691 11.6785 7.15435C11.366 6.84179 10.942 6.6662 10.5 6.6662ZM7.16667 8.33286C7.16667 7.44881 7.51786 6.60096 8.14298 5.97584C8.7681 5.35072 9.61594 4.99953 10.5 4.99953C11.3841 4.99953 12.2319 5.35072 12.857 5.97584C13.4821 6.60096 13.8333 7.44881 13.8333 8.33286C13.8333 9.21692 13.4821 10.0648 12.857 10.6899C12.2319 11.315 11.3841 11.6662 10.5 11.6662C9.61594 11.6662 8.7681 11.315 8.14298 10.6899C7.51786 10.0648 7.16667 9.21692 7.16667 8.33286Z" fill="#141B34"/>
</svg>
