<svg width="18" height="18" viewBox="0 0 18 18" fill="none" xmlns="http://www.w3.org/2000/svg">
<path d="M13.5 1.5V3M4.5 1.5V3" stroke="#808080" stroke-linecap="round" stroke-linejoin="round"/>
<path d="M8.99662 9.75H9.00338M8.99662 12.75H9.00338M11.9933 9.75H12M6 9.75H6.00673M6 12.75H6.00673" stroke="#808080" stroke-width="1.5" stroke-linecap="round" stroke-linejoin="round"/>
<path d="M2.625 6H15.375" stroke="#808080" stroke-linecap="round" stroke-linejoin="round"/>
<path d="M1.875 9.1824C1.875 5.91446 1.875 4.28046 2.81409 3.26523C3.75318 2.25 5.26462 2.25 8.2875 2.25H9.7125C12.7354 2.25 14.2469 2.25 15.1859 3.26523C16.125 4.28046 16.125 5.91446 16.125 9.1824V9.5676C16.125 12.8356 16.125 14.4695 15.1859 15.4848C14.2469 16.5 12.7354 16.5 9.7125 16.5H8.2875C5.26462 16.5 3.75318 16.5 2.81409 15.4848C1.875 14.4695 1.875 12.8356 1.875 9.5676V9.1824Z" stroke="#808080" stroke-linecap="round" stroke-linejoin="round"/>
<path d="M2 6H15.5" stroke="#808080" stroke-linecap="round" stroke-linejoin="round"/>
</svg>
