<svg width="20" height="20" viewBox="0 0 20 20" fill="none" xmlns="http://www.w3.org/2000/svg">
<path d="M17.5438 9.58333L17.7757 8.19984C17.9274 7.29524 18.0032 6.84293 17.7604 6.54647C17.5176 6.25 17.0713 6.25 16.1788 6.25H3.82153C2.92901 6.25 2.48275 6.25 2.23994 6.54647C1.99713 6.84293 2.07296 7.29524 2.2246 8.19984L3.22757 14.1829C3.56001 16.1659 3.72622 17.1574 4.40487 17.7454C5.08352 18.3333 6.06179 18.3333 8.01834 18.3333H10.0002" stroke="white" stroke-width="1.5" stroke-linecap="round"/>
<path d="M11.667 15.0013H18.3337M15.0003 18.3346L15.0003 11.668" stroke="white" stroke-width="1.5" stroke-linecap="round"/>
<path d="M14.5837 6.2513C14.5837 3.72 12.5316 1.66797 10.0003 1.66797C7.46902 1.66797 5.41699 3.72 5.41699 6.2513" stroke="white" stroke-width="1.5"/>
</svg>
