<svg width="24" height="24" viewBox="0 0 24 24" fill="none" xmlns="http://www.w3.org/2000/svg">
<path fill-rule="evenodd" clip-rule="evenodd" d="M4.63077 3H4.55769C4.223 3 3.93508 3 3.68077 3.05992C3.28708 3.15398 2.92713 3.35519 2.64078 3.64126C2.35444 3.92732 2.15289 4.28707 2.05846 4.68064C2 4.93493 2 5.22137 2 5.5575V9.21106C2 9.54573 2 9.83363 2.05992 10.0879C2.15399 10.4816 2.35522 10.8415 2.64131 11.1278C2.92739 11.4141 3.28717 11.6157 3.68077 11.7101C3.93508 11.7686 4.22154 11.7686 4.55769 11.7686H8.21154C8.54623 11.7686 8.83415 11.7686 9.08846 11.7086C9.48215 11.6146 9.8421 11.4134 10.1284 11.1273C10.4148 10.8412 10.6163 10.4815 10.7108 10.0879C10.7692 9.83363 10.7692 9.54719 10.7692 9.21106V5.5575C10.7692 5.22283 10.7692 4.93493 10.7093 4.68064C10.6152 4.28698 10.414 3.92706 10.1279 3.64073C9.84184 3.35441 9.48206 3.15288 9.08846 3.05846C8.83415 3 8.54769 3 8.21154 3H4.63077ZM4.02131 4.48189C4.08415 4.46727 4.18208 4.46143 4.63077 4.46143H8.13846C8.58861 4.46143 8.68508 4.46581 8.74792 4.48189C8.87921 4.51328 8.99924 4.58042 9.09469 4.67587C9.19015 4.77132 9.2573 4.89133 9.28869 5.02261C9.30331 5.08399 9.30769 5.18045 9.30769 5.63057V9.13799C9.30769 9.58811 9.30331 9.68456 9.28723 9.7474C9.25583 9.87868 9.18869 9.9987 9.09323 10.0941C8.99778 10.1896 8.87775 10.2567 8.74646 10.2881C8.68654 10.3013 8.59008 10.3071 8.13846 10.3071H4.63077C4.18062 10.3071 4.08415 10.3027 4.02131 10.2867C3.89002 10.2553 3.76999 10.1881 3.67454 10.0927C3.57908 9.99724 3.51193 9.87722 3.48054 9.74594C3.46738 9.68602 3.46154 9.58957 3.46154 9.13799V5.63057C3.46154 5.18045 3.46592 5.08399 3.482 5.02115C3.5134 4.88987 3.58054 4.76985 3.676 4.67441C3.77145 4.57896 3.89148 4.51182 4.02277 4.48042M14.8615 3H14.7885C14.4538 3 14.1658 3 13.9115 3.05992C13.5179 3.15398 13.1579 3.35519 12.8716 3.64126C12.5852 3.92732 12.3837 4.28707 12.2892 4.68064C12.2308 4.93493 12.2308 5.22137 12.2308 5.5575V9.21106C12.2308 9.54573 12.2308 9.83363 12.2907 10.0879C12.3848 10.4816 12.586 10.8415 12.8721 11.1278C13.1582 11.4141 13.5179 11.6157 13.9115 11.7101C14.1658 11.7686 14.4523 11.7686 14.7885 11.7686H18.4423C18.777 11.7686 19.0649 11.7686 19.3192 11.7086C19.7129 11.6146 20.0729 11.4134 20.3592 11.1273C20.6456 10.8412 20.8471 10.4815 20.9415 10.0879C21 9.83363 21 9.54719 21 9.21106V5.5575C21 5.22283 21 4.93493 20.9401 4.68064C20.846 4.28698 20.6448 3.92706 20.3587 3.64073C20.0726 3.35441 19.7128 3.15288 19.3192 3.05846C19.0649 3 18.7785 3 18.4423 3H14.8615ZM14.2521 4.48189C14.3149 4.46727 14.4128 4.46143 14.8615 4.46143H18.3692C18.8194 4.46143 18.9158 4.46581 18.9787 4.48189C19.11 4.51328 19.23 4.58042 19.3255 4.67587C19.4209 4.77132 19.4881 4.89133 19.5195 5.02261C19.5341 5.08399 19.5385 5.18045 19.5385 5.63057V9.13799C19.5385 9.58811 19.5326 9.68456 19.518 9.7474C19.4866 9.87868 19.4195 9.9987 19.324 10.0941C19.2285 10.1896 19.1085 10.2567 18.9772 10.2881C18.9158 10.3027 18.8194 10.3071 18.3692 10.3071H14.8615C14.4114 10.3071 14.3149 10.3027 14.2521 10.2867C14.1208 10.2553 14.0008 10.1881 13.9053 10.0927C13.8099 9.99724 13.7427 9.87722 13.7113 9.74594C13.6982 9.68602 13.6923 9.58957 13.6923 9.13799V5.63057C13.6923 5.18045 13.6967 5.08399 13.7128 5.02115C13.7442 4.88987 13.8113 4.76985 13.9068 4.67441C14.0022 4.57896 14.1222 4.51182 14.2535 4.48042M4.55769 13.23H8.21154C8.54623 13.23 8.83415 13.23 9.08846 13.2899C9.48215 13.384 9.8421 13.5852 10.1284 13.8712C10.4148 14.1573 10.6163 14.5171 10.7108 14.9106C10.7692 15.1649 10.7692 15.4513 10.7692 15.7875V19.441C10.7692 19.7757 10.7692 20.0636 10.7093 20.3179C10.6152 20.7116 10.414 21.0715 10.1279 21.3578C9.84184 21.6441 9.48206 21.8457 9.08846 21.9401C8.83415 21.9985 8.54769 21.9985 8.21154 21.9985H4.55769C4.223 21.9985 3.93508 21.9985 3.68077 21.9386C3.28708 21.8446 2.92713 21.6433 2.64078 21.3573C2.35444 21.0712 2.15289 20.7115 2.05846 20.3179C2 20.0636 2 19.7772 2 19.441V15.7875C2 15.4528 2 15.1649 2.05992 14.9106C2.15399 14.517 2.35522 14.157 2.64131 13.8707C2.92739 13.5844 3.28717 13.3829 3.68077 13.2884C3.93508 13.23 4.22154 13.23 4.55769 13.23ZM4.63077 14.6914C4.18062 14.6914 4.08415 14.6958 4.02131 14.7119C3.89002 14.7433 3.76999 14.8104 3.67454 14.9059C3.57908 15.0013 3.51193 15.1213 3.48054 15.2526C3.46738 15.3125 3.46154 15.409 3.46154 15.8605V19.368C3.46154 19.8181 3.46592 19.9145 3.482 19.9774C3.5134 20.1087 3.58054 20.2287 3.676 20.3241C3.77145 20.4196 3.89148 20.4867 4.02277 20.5181C4.08415 20.5327 4.18062 20.5371 4.63077 20.5371H8.13846C8.58861 20.5371 8.68508 20.5313 8.74792 20.5167C8.87921 20.4853 8.99924 20.4181 9.09469 20.3227C9.19015 20.2272 9.2573 20.1072 9.28869 19.9759C9.30331 19.9145 9.30769 19.8181 9.30769 19.368V15.8605C9.30769 15.4104 9.30331 15.314 9.28723 15.2511C9.25583 15.1199 9.18869 14.9998 9.09323 14.9044C8.99778 14.8089 8.87775 14.7418 8.74646 14.7104C8.68654 14.6973 8.59008 14.6914 8.13846 14.6914H4.63077ZM14.8615 13.23H14.7885C14.4538 13.23 14.1658 13.23 13.9115 13.2899C13.5179 13.384 13.1579 13.5852 12.8716 13.8712C12.5852 14.1573 12.3837 14.5171 12.2892 14.9106C12.2308 15.1649 12.2308 15.4513 12.2308 15.7875V19.441C12.2308 19.7757 12.2308 20.0636 12.2907 20.3179C12.3848 20.7116 12.586 21.0715 12.8721 21.3578C13.1582 21.6441 13.5179 21.8457 13.9115 21.9401C14.1658 22 14.4538 22 14.7885 22H18.4423C18.777 22 19.0649 22 19.3192 21.9401C19.7126 21.8458 20.0723 21.6445 20.3584 21.3584C20.6444 21.0724 20.8458 20.7127 20.9401 20.3194C21 20.0651 21 19.7772 21 19.4425V15.7889C21 15.4543 21 15.1664 20.9401 14.9121C20.8462 14.5182 20.6451 14.1579 20.359 13.8713C20.0729 13.5847 19.713 13.383 19.3192 13.2884C19.0649 13.23 18.7785 13.23 18.4423 13.23H14.8615ZM14.2521 14.7119C14.3149 14.6973 14.4128 14.6914 14.8615 14.6914H18.3692C18.8194 14.6914 18.9158 14.6958 18.9787 14.7119C19.11 14.7433 19.23 14.8104 19.3255 14.9059C19.4209 15.0013 19.4881 15.1213 19.5195 15.2526C19.5341 15.314 19.5385 15.4104 19.5385 15.8605V19.368C19.5385 19.8181 19.5326 19.9145 19.518 19.9774C19.4866 20.1087 19.4195 20.2287 19.324 20.3241C19.2285 20.4196 19.1085 20.4867 18.9772 20.5181C18.9158 20.5327 18.8194 20.5371 18.3692 20.5371H14.8615C14.4114 20.5371 14.3149 20.5313 14.2521 20.5167C14.1208 20.4853 14.0008 20.4181 13.9053 20.3227C13.8099 20.2272 13.7427 20.1072 13.7113 19.9759C13.6982 19.916 13.6923 19.8196 13.6923 19.368V15.8605C13.6923 15.4104 13.6967 15.314 13.7128 15.2511C13.7442 15.1199 13.8113 14.9998 13.9068 14.9044C14.0022 14.8089 14.1222 14.7418 14.2535 14.7104" fill="#141B34"/>
</svg>
