<svg width="18" height="18" viewBox="0 0 18 18" fill="none" xmlns="http://www.w3.org/2000/svg">
<path d="M9 2.25C12.3137 2.25 15 4.93629 15 8.25M9.375 4.875C11.0318 4.875 12.375 6.21814 12.375 7.875" stroke="#141B34" stroke-linecap="round" stroke-linejoin="round"/>
<path d="M6.11869 4.28417L5.8167 3.60469C5.61924 3.16041 5.52051 2.93826 5.37285 2.76826C5.1878 2.55521 4.9466 2.39846 4.67675 2.31589C4.46144 2.25 4.21835 2.25 3.73216 2.25C3.02093 2.25 2.66531 2.25 2.3668 2.38672C2.01515 2.54777 1.69757 2.89746 1.57105 3.26295C1.46363 3.57322 1.4944 3.89207 1.55594 4.52978C2.21093 11.3176 5.93236 15.0391 12.7202 15.694C13.358 15.7556 13.6768 15.7864 13.9871 15.679C14.3525 15.5525 14.7022 15.2348 14.8633 14.8832C15 14.5846 15 14.2291 15 13.5178C15 13.0316 15 12.7885 14.9342 12.5732C14.8516 12.3034 14.6948 12.0622 14.4818 11.8771C14.3117 11.7295 14.0896 11.6308 13.6453 11.4333L12.9659 11.1313C12.4847 10.9174 12.2441 10.8106 11.9996 10.7873C11.7657 10.765 11.5298 10.7979 11.3108 10.8832C11.082 10.9723 10.8797 11.1408 10.4753 11.4778C10.0726 11.8134 9.87128 11.9812 9.62528 12.071C9.40725 12.1507 9.11895 12.1802 8.88923 12.1463C8.63018 12.1082 8.43173 12.0022 8.03498 11.7901C6.8004 11.1304 6.11965 10.4496 5.4599 9.21503C5.24786 8.81828 5.14184 8.61983 5.10365 8.36078C5.06981 8.13105 5.09931 7.84275 5.17898 7.62472C5.26884 7.37871 5.43661 7.17739 5.77214 6.77475C6.10922 6.37026 6.27776 6.16802 6.36686 5.93918C6.45214 5.72021 6.48496 5.4843 6.46271 5.25036C6.43946 5.00589 6.33254 4.76532 6.11869 4.28417Z" stroke="#141B34" stroke-linecap="round"/>
</svg>
