<svg width="24" height="24" viewBox="0 0 24 24" fill="none" xmlns="http://www.w3.org/2000/svg">
<circle cx="10.8" cy="16.7977" r="1.2" fill="#003459"/>
<circle cx="10.8" cy="9.39531" r="1.2" fill="#003459"/>
<path d="M7.00073 13H15.0007" stroke="#003459" stroke-width="1.5" stroke-linecap="round" stroke-linejoin="round"/>
<circle cx="1.5" cy="1.5" r="1.5" transform="matrix(1 0 0 -1 16.0007 8)" stroke="#003459" stroke-width="1.5" stroke-linecap="round" stroke-linejoin="round"/>
<path d="M2.7746 11.1439C1.77145 12.2643 1.74987 13.9546 2.67053 15.1437C4.49748 17.5033 6.4971 19.5029 8.85669 21.3298C10.0458 22.2505 11.7361 22.2289 12.8564 21.2258C15.8983 18.5022 18.6839 15.6559 21.3722 12.5279C21.638 12.2187 21.8043 11.8397 21.8416 11.4336C22.0066 9.63798 22.3456 4.46467 20.9406 3.05974C19.5357 1.65481 14.3624 1.99377 12.5667 2.15876C12.1607 2.19608 11.7817 2.36233 11.4724 2.62811C8.34449 5.31646 5.49817 8.10211 2.7746 11.1439Z" stroke="#003459" stroke-width="1.5"/>
</svg>
