<svg width="20" height="20" viewBox="0 0 20 20" fill="none" xmlns="http://www.w3.org/2000/svg">
<path d="M6.70123 3.16602H6.52762C6.6231 3.16602 6.70123 3.09102 6.70123 2.99935V3.16602H13.2984V2.99935C13.2984 3.09102 13.3766 3.16602 13.4721 3.16602H13.2984V4.66602H14.8609V2.99935C14.8609 2.26393 14.2381 1.66602 13.4721 1.66602H6.52762C5.76156 1.66602 5.13873 2.26393 5.13873 2.99935V4.66602H6.70123V3.16602ZM17.6387 4.66602H2.36095C1.97683 4.66602 1.6665 4.96393 1.6665 5.33268V5.99935C1.6665 6.09102 1.74463 6.16602 1.84012 6.16602H3.15088L3.6869 17.0619C3.72163 17.7723 4.3336 18.3327 5.07362 18.3327H14.9261C15.6682 18.3327 16.2781 17.7744 16.3128 17.0619L16.8488 6.16602H18.1596C18.255 6.16602 18.3332 6.09102 18.3332 5.99935V5.33268C18.3332 4.96393 18.0228 4.66602 17.6387 4.66602ZM14.759 16.8327H5.24072L4.71555 6.16602H15.2841L14.759 16.8327Z" fill="#F12525"/>
</svg>
