<svg width="21" height="20" viewBox="0 0 21 20" fill="none" xmlns="http://www.w3.org/2000/svg">
<g clip-path="url(#clip0_1473_46748)">
<path d="M2.41412 3.35938C1.35943 4.80078 0.500053 6.00391 0.507865 6.03125C0.52349 6.09766 10.504 19.2578 10.5391 19.2578C10.5782 19.2578 20.5001 6.06641 20.5001 6.01562C20.5001 5.98828 19.6368 4.79297 18.5821 3.35547L16.6641 0.742188H10.5001H4.33599L2.41412 3.35938ZM7.10162 1.96094C7.10162 1.96875 6.84771 2.73828 6.53912 3.67188L5.98052 5.37109L4.2149 5.38281C2.74615 5.39062 2.45318 5.38281 2.48052 5.33984C2.49615 5.30859 3.06255 4.53516 3.73443 3.62109L4.96099 1.95312H6.0313C6.62115 1.95312 7.10162 1.95703 7.10162 1.96094ZM13.1641 3.61328C13.461 4.51562 13.7149 5.28516 13.7266 5.32031C13.7461 5.38672 13.5743 5.39062 10.5001 5.39062C7.91411 5.39062 7.25396 5.37891 7.26958 5.33984C7.2774 5.31641 7.51958 4.58203 7.80474 3.71094C8.0899 2.84375 8.33599 2.08984 8.35552 2.04297L8.39068 1.95312L10.5079 1.96094L12.6251 1.97266L13.1641 3.61328ZM17.2657 3.62109C17.9376 4.53516 18.504 5.30859 18.5196 5.33984C18.5469 5.38281 18.254 5.39062 16.7852 5.38281L15.0196 5.37109L14.5586 3.96484C14.3008 3.19141 14.0508 2.42188 14.0001 2.25391L13.9063 1.95312H14.9727H16.0391L17.2657 3.62109ZM5.98833 6.66797C6.04302 6.80469 8.74224 14.8945 8.72661 14.8789C8.7188 14.8711 7.32037 13.0273 5.61724 10.7812C3.91412 8.53516 2.50396 6.67578 2.48443 6.64844C2.45318 6.61328 2.80083 6.60156 4.20318 6.60156C5.8399 6.60156 5.96099 6.60547 5.98833 6.66797ZM13.7422 6.625C13.7422 6.65234 10.543 16.3359 10.5313 16.3516C10.5235 16.3555 9.78911 14.1875 8.9024 11.5312C8.01177 8.875 7.2774 6.67578 7.26568 6.64844C7.25396 6.61328 7.91411 6.60156 10.4961 6.60156C12.2813 6.60156 13.7422 6.61328 13.7422 6.625ZM18.504 6.67969C18.3594 6.88672 12.3165 14.9102 12.3086 14.9023C12.2969 14.8984 13.5118 11.1992 14.6055 7.89844L15.0391 6.60156H16.7969C18.5469 6.60156 18.5547 6.60156 18.504 6.67969Z" fill="#003459"/>
</g>
<defs>
<clipPath id="clip0_1473_46748">
<rect width="20" height="20" fill="white" transform="translate(0.5)"/>
</clipPath>
</defs>
</svg>
