<svg width="24" height="24" viewBox="0 0 24 24" fill="none" xmlns="http://www.w3.org/2000/svg">
<path d="M2.02545 8.84811C2.02545 13.1274 5.61131 17.336 11.2663 20.9522C11.4875 21.0825 11.7887 21.2235 11.9996 21.2235C12.2105 21.2235 12.5117 21.083 12.723 20.9522C18.3879 17.336 21.9742 13.1274 21.9742 8.84854C21.9742 5.29268 19.533 2.78125 16.2785 2.78125C14.4103 2.78125 12.9035 3.66539 11.9996 5.02139C11.0953 3.67568 9.57903 2.78125 7.72074 2.78125C4.46617 2.78125 2.02502 5.29268 2.02502 8.84854M3.64202 8.84854C3.64202 6.17682 5.3696 4.39911 7.70017 4.39911C9.58845 4.39911 10.6633 5.57425 11.316 6.57882C11.5873 6.98039 11.7583 7.09096 11.9992 7.09096C12.24 7.09096 12.3909 6.97054 12.6823 6.57882C13.365 5.59439 14.4197 4.39911 16.2982 4.39911C18.6287 4.39911 20.3563 6.17682 20.3563 8.84896C20.3563 12.5852 16.4087 16.6134 12.2002 19.4055C12.0995 19.4758 12.0395 19.5264 11.9992 19.5264C11.9589 19.5264 11.8886 19.4762 11.7883 19.4055C7.5896 16.613 3.64245 12.5852 3.64245 8.84854" fill="#141B34"/>
</svg>
