<svg width="25" height="24" viewBox="0 0 25 24" fill="none" xmlns="http://www.w3.org/2000/svg">
<path d="M21.3189 17.1563H19.6712C19.5587 17.1563 19.4533 17.2055 19.3829 17.2922C19.2189 17.4914 19.0431 17.6836 18.8579 17.8664C18.1007 18.6245 17.2037 19.2286 16.2165 19.6453C15.1939 20.0773 14.0947 20.2989 12.9845 20.2969C11.8618 20.2969 10.7743 20.0766 9.75247 19.6453C8.76535 19.2286 7.86835 18.6245 7.11107 17.8664C6.35243 17.111 5.74751 16.2155 5.32982 15.2297C4.89622 14.2078 4.67826 13.1227 4.67826 12C4.67826 10.8774 4.89857 9.79222 5.32982 8.77035C5.74701 7.78363 6.34701 6.89535 7.11107 6.13363C7.87513 5.37191 8.76341 4.77191 9.75247 4.35472C10.7743 3.92347 11.8618 3.70316 12.9845 3.70316C14.1072 3.70316 15.1947 3.92113 16.2165 4.35472C17.2056 4.77191 18.0939 5.37191 18.8579 6.13363C19.0431 6.31879 19.2165 6.51097 19.3829 6.70785C19.4533 6.79457 19.5611 6.84379 19.6712 6.84379H21.3189C21.4665 6.84379 21.5579 6.67972 21.4759 6.5555C19.6783 3.76175 16.5329 1.91254 12.9587 1.92191C7.3431 1.93597 2.84076 6.49457 2.89701 12.1032C2.95326 17.6227 7.44857 22.0782 12.9845 22.0782C16.5494 22.0782 19.6806 20.2313 21.4759 17.4446C21.5556 17.3203 21.4665 17.1563 21.3189 17.1563ZM23.4025 11.8524L20.0767 9.22738C19.9525 9.12894 19.772 9.218 19.772 9.37504V11.1563H12.4126C12.3095 11.1563 12.2251 11.2407 12.2251 11.3438V12.6563C12.2251 12.7594 12.3095 12.8438 12.4126 12.8438H19.772V14.625C19.772 14.7821 19.9548 14.8711 20.0767 14.7727L23.4025 12.1477C23.4249 12.1302 23.443 12.1077 23.4555 12.0822C23.4679 12.0566 23.4744 12.0285 23.4744 12C23.4744 11.9716 23.4679 11.9435 23.4555 11.9179C23.443 11.8923 23.4249 11.8699 23.4025 11.8524Z" fill="#F12525"/>
</svg>
