<svg width="18" height="18" viewBox="0 0 18 18" fill="none" xmlns="http://www.w3.org/2000/svg">
<path fill-rule="evenodd" clip-rule="evenodd" d="M7.00351 14.1411C7.32648 13.9549 7.73923 14.0658 7.92542 14.3888C8.03828 14.5845 8.2007 14.7471 8.39627 14.8601C8.5919 14.9732 8.81383 15.0327 9.03974 15.0327C9.26565 15.0327 9.48758 14.9732 9.68321 14.8601C9.87878 14.7471 10.0412 14.5845 10.1541 14.3888C10.3402 14.0658 10.753 13.9549 11.076 14.1411C11.3989 14.3273 11.5098 14.7401 11.3236 15.063C11.0924 15.4641 10.7596 15.7974 10.3586 16.029C9.95767 16.2607 9.50279 16.3827 9.03974 16.3827C8.57669 16.3827 8.12182 16.2607 7.7209 16.029C7.31992 15.7974 6.9871 15.4641 6.75586 15.063C6.56967 14.7401 6.68055 14.3273 7.00351 14.1411Z" fill="#141B34"/>
<path fill-rule="evenodd" clip-rule="evenodd" d="M5.4133 4.80129C4.97653 5.65736 4.78403 6.61723 4.85698 7.57559L4.85779 7.58623L4.92096 8.63621C4.98391 9.71973 4.83412 10.8016 4.48374 11.8218H13.4877C13.1355 10.7909 12.9859 9.69809 13.051 8.60399L13.1116 7.57558C13.1846 6.61723 12.9922 5.65737 12.5554 4.80131C11.7765 3.35755 10.4352 2.475 8.98436 2.475C7.53353 2.475 6.19226 3.35754 5.4133 4.80129ZM15.0281 12.0446C15.1362 12.1643 15.202 12.3228 15.202 12.4968C15.202 12.8696 14.8998 13.1718 14.527 13.1718H3.47334C3.24013 13.1718 3.02344 13.0514 2.90023 12.8534C2.77702 12.6554 2.76475 12.4078 2.86779 12.1986C3.39996 11.1179 3.64302 9.91778 3.57327 8.71522C3.57326 8.71498 3.57329 8.71545 3.57327 8.71522L3.51046 7.6726C3.41961 6.46584 3.66327 5.25737 4.21471 4.18006L4.2211 4.16787C5.19226 2.36229 6.9506 1.125 8.98436 1.125C11.0181 1.125 12.7765 2.36229 13.7476 4.16787L13.754 4.18006C14.3054 5.25724 14.5491 6.46554 14.4583 7.67215L14.3986 8.68351C14.3299 9.83926 14.5464 10.9937 15.0281 12.0446Z" fill="#141B34"/>
</svg>
