<svg width="23" height="20" viewBox="0 0 23 20" fill="none" xmlns="http://www.w3.org/2000/svg">
<path d="M3.25009 6.66667V10.8667C3.25009 13.9942 3.25009 15.5575 4.22675 16.5283C5.20342 17.4992 6.77425 17.5 9.91675 17.5H11.5834C14.7259 17.5 16.2976 17.5 17.2734 16.5283C18.2493 15.5567 18.2501 13.9942 18.2501 10.8675V6.66667M9.08342 9.16667H12.4168M17.5818 2.5H3.91842C3.29342 2.5 2.98009 2.5 2.76342 2.6475C2.65646 2.72058 2.568 2.81759 2.50509 2.93083C2.37759 3.1575 2.40842 3.46417 2.47092 4.07917C2.57509 5.105 2.62675 5.61833 2.89842 5.985C3.03425 6.1675 3.20592 6.32083 3.40342 6.43583C3.80009 6.66667 4.32175 6.66667 5.36675 6.66667H16.1351C17.1793 6.66667 17.7009 6.66667 18.0976 6.43583C18.2951 6.32083 18.4668 6.1675 18.6026 5.985C18.8743 5.61833 18.9259 5.105 19.0301 4.07917C19.0926 3.465 19.1234 3.1575 18.9968 2.93C18.9335 2.81697 18.8448 2.72025 18.7376 2.6475C18.5201 2.5 18.2068 2.5 17.5818 2.5Z" stroke="#3A4651" stroke-width="1.5" stroke-linecap="round" stroke-linejoin="round"/>
<rect x="14.75" y="0.5" width="7" height="7" rx="3.5" fill="#F22929"/>
<rect x="14.75" y="0.5" width="7" height="7" rx="3.5" stroke="white"/>
</svg>
