<svg width="14" height="17" viewBox="0 0 14 17" fill="none" xmlns="http://www.w3.org/2000/svg">
<path d="M2.5 6.75V5.4375C2.5 2.88375 4.37725 0.75 7 0.75C9.62275 0.75 11.5 2.88375 11.5 5.4375V6.75H11.875C12.3723 6.75 12.8492 6.94754 13.2008 7.29917C13.5525 7.65081 13.75 8.12772 13.75 8.625V14.625C13.75 15.1223 13.5525 15.5992 13.2008 15.9508C12.8492 16.3025 12.3723 16.5 11.875 16.5H2.125C1.62772 16.5 1.15081 16.3025 0.799175 15.9508C0.447544 15.5992 0.25 15.1223 0.25 14.625V8.625C0.25 8.12772 0.447544 7.65081 0.799175 7.29917C1.15081 6.94754 1.62772 6.75 2.125 6.75H2.5ZM1.375 8.625V14.625C1.375 14.8239 1.45402 15.0147 1.59467 15.1553C1.73532 15.296 1.92609 15.375 2.125 15.375H11.875C12.0739 15.375 12.2647 15.296 12.4053 15.1553C12.546 15.0147 12.625 14.8239 12.625 14.625V8.625C12.625 8.42609 12.546 8.23532 12.4053 8.09467C12.2647 7.95402 12.0739 7.875 11.875 7.875H2.125C1.92609 7.875 1.73532 7.95402 1.59467 8.09467C1.45402 8.23532 1.375 8.42609 1.375 8.625ZM3.625 5.4375V6.75H10.375V5.4375C10.375 3.435 8.9335 1.875 7 1.875C5.0665 1.875 3.625 3.435 3.625 5.4375Z" fill="#141B34"/>
</svg>
