<svg width="24" height="24" viewBox="0 0 24 24" fill="none" xmlns="http://www.w3.org/2000/svg">
<path d="M10.8 19.2004C9.13864 19.2004 7.51459 18.7077 6.13321 17.7847C4.75184 16.8617 3.67519 15.5498 3.03942 14.0149C2.40364 12.48 2.23729 10.7911 2.56141 9.16163C2.88552 7.53219 3.68555 6.03546 4.86031 4.8607C6.03507 3.68594 7.53181 2.88591 9.16125 2.5618C10.7907 2.23768 12.4796 2.40403 14.0145 3.03981C15.5494 3.67558 16.8613 4.75223 17.7843 6.1336C18.7074 7.51498 19.2 9.13903 19.2 10.8004C19.2 11.9035 18.9827 12.9958 18.5606 14.0149C18.1385 15.0341 17.5197 15.9601 16.7397 16.7401C15.9597 17.5201 15.0337 18.1388 14.0145 18.561C12.9954 18.9831 11.9031 19.2004 10.8 19.2004ZM10.8 4.08486C9.47621 4.08486 8.18214 4.47741 7.08145 5.21287C5.98075 5.94833 5.12286 6.99367 4.61627 8.2167C4.10967 9.43972 3.97713 10.7855 4.23539 12.0839C4.49365 13.3822 5.13111 14.5748 6.06718 15.5109C7.00324 16.447 8.19586 17.0844 9.49422 17.3427C10.7926 17.601 12.1384 17.4684 13.3614 16.9618C14.5844 16.4552 15.6298 15.5973 16.3652 14.4966C17.1007 13.3959 17.4932 12.1019 17.4932 10.7781C17.4932 9.00293 16.7881 7.30048 15.5328 6.04526C14.2776 4.79003 12.5752 4.08486 10.8 4.08486Z" fill="#141B34"/>
<path d="M20.7987 21.5996C20.6933 21.6001 20.5889 21.5795 20.4915 21.5392C20.3942 21.4988 20.3059 21.4393 20.2319 21.3644L15.8153 16.9483C15.6736 16.7962 15.5965 16.5952 15.6001 16.3874C15.6038 16.1797 15.688 15.9814 15.8349 15.8345C15.9819 15.6876 16.1801 15.6034 16.3879 15.5997C16.5957 15.5961 16.7968 15.6732 16.9488 15.8148L21.3654 20.2309C21.5156 20.3813 21.6 20.5851 21.6 20.7976C21.6 21.0102 21.5156 21.214 21.3654 21.3644C21.2914 21.4393 21.2031 21.4988 21.1058 21.5392C21.0085 21.5795 20.904 21.6001 20.7987 21.5996Z" fill="#141B34"/>
</svg>
