<svg width="156" height="156" viewBox="0 0 156 156" fill="none" xmlns="http://www.w3.org/2000/svg">
<rect x="0.5" y="0.5" width="155" height="155" rx="4.5" fill="white"/>
<rect x="0.5" y="0.5" width="155" height="155" rx="4.5" stroke="#C4C4C4" stroke-dasharray="5 5"/>
<path d="M62.5833 74.9167H93.4167C94.0333 74.9167 94.4958 74.634 94.8042 74.0687C95.1125 73.5035 95.0611 72.9639 94.65 72.45L86.1708 61.1187C85.8625 60.7076 85.4514 60.5021 84.9375 60.5021C84.4236 60.5021 84.0125 60.7076 83.7042 61.1187L75.6875 71.8333L69.9833 64.2021C69.675 63.791 69.2639 63.5854 68.75 63.5854C68.2361 63.5854 67.825 63.791 67.5167 64.2021L61.35 72.45C60.9389 72.9639 60.8875 73.5035 61.1958 74.0687C61.5042 74.634 61.9667 74.9167 62.5833 74.9167ZM56.4167 87.25C54.7208 87.25 53.2686 86.6467 52.0599 85.4401C50.8533 84.2314 50.25 82.7792 50.25 81.0833V37.9167C50.25 36.2208 50.8533 34.7686 52.0599 33.5599C53.2686 32.3533 54.7208 31.75 56.4167 31.75H99.5833C101.279 31.75 102.731 32.3533 103.94 33.5599C105.147 34.7686 105.75 36.2208 105.75 37.9167V81.0833C105.75 82.7792 105.147 84.2314 103.94 85.4401C102.731 86.6467 101.279 87.25 99.5833 87.25H56.4167ZM56.4167 81.0833H99.5833V37.9167H56.4167V81.0833Z" fill="#F1F5F9"/>
<path d="M29.1322 114.68C28.5122 114.68 27.9522 114.574 27.4522 114.362C26.9562 114.146 26.5462 113.84 26.2222 113.444C25.9022 113.044 25.6942 112.57 25.5982 112.022L26.9062 111.824C27.0382 112.352 27.3142 112.764 27.7342 113.06C28.1542 113.352 28.6442 113.498 29.2042 113.498C29.5522 113.498 29.8722 113.444 30.1642 113.336C30.4562 113.224 30.6902 113.066 30.8662 112.862C31.0462 112.654 31.1362 112.406 31.1362 112.118C31.1362 111.962 31.1082 111.824 31.0522 111.704C31.0002 111.584 30.9262 111.48 30.8302 111.392C30.7382 111.3 30.6242 111.222 30.4882 111.158C30.3562 111.09 30.2102 111.032 30.0502 110.984L27.8362 110.33C27.6202 110.266 27.4002 110.184 27.1762 110.084C26.9522 109.98 26.7462 109.846 26.5582 109.682C26.3742 109.514 26.2242 109.308 26.1082 109.064C25.9922 108.816 25.9342 108.516 25.9342 108.164C25.9342 107.632 26.0702 107.182 26.3422 106.814C26.6182 106.442 26.9902 106.162 27.4582 105.974C27.9262 105.782 28.4502 105.686 29.0302 105.686C29.6142 105.694 30.1362 105.798 30.5962 105.998C31.0602 106.198 31.4442 106.486 31.7482 106.862C32.0562 107.234 32.2682 107.686 32.3842 108.218L31.0402 108.446C30.9802 108.122 30.8522 107.844 30.6562 107.612C30.4602 107.376 30.2202 107.196 29.9362 107.072C29.6522 106.944 29.3442 106.878 29.0122 106.874C28.6922 106.866 28.3982 106.914 28.1302 107.018C27.8662 107.122 27.6542 107.268 27.4942 107.456C27.3382 107.644 27.2602 107.86 27.2602 108.104C27.2602 108.344 27.3302 108.538 27.4702 108.686C27.6102 108.834 27.7822 108.952 27.9862 109.04C28.1942 109.124 28.4002 109.194 28.6042 109.25L30.2002 109.7C30.4002 109.756 30.6262 109.832 30.8782 109.928C31.1342 110.02 31.3802 110.15 31.6162 110.318C31.8562 110.486 32.0542 110.71 32.2102 110.99C32.3662 111.266 32.4442 111.614 32.4442 112.034C32.4442 112.47 32.3562 112.854 32.1802 113.186C32.0042 113.514 31.7622 113.79 31.4542 114.014C31.1502 114.234 30.7982 114.4 30.3982 114.512C29.9982 114.624 29.5762 114.68 29.1322 114.68ZM36.5968 114.68C35.9528 114.68 35.3868 114.54 34.8988 114.26C34.4148 113.976 34.0368 113.582 33.7648 113.078C33.4968 112.57 33.3628 111.982 33.3628 111.314C33.3628 110.606 33.4948 109.992 33.7588 109.472C34.0268 108.952 34.3988 108.55 34.8748 108.266C35.3508 107.982 35.9048 107.84 36.5368 107.84C37.1968 107.84 37.7588 107.994 38.2228 108.302C38.6868 108.606 39.0328 109.04 39.2608 109.604C39.4928 110.168 39.5848 110.838 39.5368 111.614H38.2828V111.158C38.2748 110.406 38.1308 109.85 37.8508 109.49C37.5748 109.13 37.1528 108.95 36.5848 108.95C35.9568 108.95 35.4848 109.148 35.1688 109.544C34.8528 109.94 34.6948 110.512 34.6948 111.26C34.6948 111.972 34.8528 112.524 35.1688 112.916C35.4848 113.304 35.9408 113.498 36.5368 113.498C36.9288 113.498 37.2668 113.41 37.5508 113.234C37.8388 113.054 38.0628 112.798 38.2228 112.466L39.4528 112.856C39.2008 113.436 38.8188 113.886 38.3068 114.206C37.7948 114.522 37.2248 114.68 36.5968 114.68ZM34.2868 111.614V110.636H38.9128V111.614H34.2868ZM41.003 114.5V105.68H42.257V114.5H41.003ZM46.9328 114.68C46.2888 114.68 45.7228 114.54 45.2348 114.26C44.7508 113.976 44.3728 113.582 44.1007 113.078C43.8328 112.57 43.6988 111.982 43.6988 111.314C43.6988 110.606 43.8308 109.992 44.0948 109.472C44.3628 108.952 44.7348 108.55 45.2108 108.266C45.6868 107.982 46.2408 107.84 46.8728 107.84C47.5328 107.84 48.0948 107.994 48.5588 108.302C49.0228 108.606 49.3688 109.04 49.5968 109.604C49.8288 110.168 49.9208 110.838 49.8728 111.614H48.6188V111.158C48.6108 110.406 48.4668 109.85 48.1868 109.49C47.9108 109.13 47.4888 108.95 46.9208 108.95C46.2928 108.95 45.8208 109.148 45.5048 109.544C45.1888 109.94 45.0308 110.512 45.0308 111.26C45.0308 111.972 45.1888 112.524 45.5048 112.916C45.8208 113.304 46.2768 113.498 46.8728 113.498C47.2648 113.498 47.6028 113.41 47.8868 113.234C48.1748 113.054 48.3988 112.798 48.5588 112.466L49.7888 112.856C49.5368 113.436 49.1548 113.886 48.6428 114.206C48.1308 114.522 47.5608 114.68 46.9328 114.68ZM44.6228 111.614V110.636H49.2487V111.614H44.6228ZM53.9909 114.68C53.3269 114.68 52.7629 114.532 52.2989 114.236C51.8349 113.94 51.4789 113.534 51.2309 113.018C50.9869 112.502 50.8629 111.916 50.8589 111.26C50.8629 110.592 50.9909 110.002 51.2429 109.49C51.4949 108.974 51.8549 108.57 52.3229 108.278C52.7909 107.986 53.3529 107.84 54.0089 107.84C54.7169 107.84 55.3209 108.016 55.8209 108.368C56.3249 108.72 56.6569 109.202 56.8169 109.814L55.5689 110.174C55.4449 109.81 55.2409 109.528 54.9569 109.328C54.6769 109.124 54.3549 109.022 53.9909 109.022C53.5789 109.022 53.2409 109.12 52.9769 109.316C52.7129 109.508 52.5169 109.772 52.3889 110.108C52.2609 110.444 52.1949 110.828 52.1909 111.26C52.1949 111.928 52.3469 112.468 52.6469 112.88C52.9509 113.292 53.3989 113.498 53.9909 113.498C54.3949 113.498 54.7209 113.406 54.9689 113.222C55.2209 113.034 55.4129 112.766 55.5449 112.418L56.8169 112.718C56.6049 113.35 56.2549 113.836 55.7669 114.176C55.2789 114.512 54.6869 114.68 53.9909 114.68ZM61.7472 114.5C61.3392 114.58 60.9392 114.614 60.5472 114.602C60.1552 114.59 59.8052 114.514 59.4972 114.374C59.1892 114.234 58.9572 114.014 58.8012 113.714C58.6612 113.446 58.5852 113.174 58.5732 112.898C58.5652 112.618 58.5612 112.302 58.5612 111.95V106.22H59.8212V111.89C59.8212 112.15 59.8232 112.376 59.8272 112.568C59.8352 112.76 59.8772 112.922 59.9532 113.054C60.0972 113.302 60.3252 113.444 60.6372 113.48C60.9532 113.512 61.3232 113.498 61.7472 113.438V114.5ZM57.3192 109.028V108.02H61.7472V109.028H57.3192ZM67.3458 114.68C66.8658 114.68 66.4638 114.592 66.1398 114.416C65.8158 114.236 65.5698 114 65.4018 113.708C65.2378 113.412 65.1558 113.088 65.1558 112.736C65.1558 112.408 65.2138 112.12 65.3298 111.872C65.4458 111.624 65.6178 111.414 65.8458 111.242C66.0738 111.066 66.3538 110.924 66.6858 110.816C66.9738 110.732 67.2998 110.658 67.6638 110.594C68.0278 110.53 68.4098 110.47 68.8098 110.414C69.2138 110.358 69.6138 110.302 70.0098 110.246L69.5538 110.498C69.5618 109.99 69.4538 109.614 69.2298 109.37C69.0098 109.122 68.6298 108.998 68.0898 108.998C67.7498 108.998 67.4378 109.078 67.1538 109.238C66.8698 109.394 66.6718 109.654 66.5598 110.018L65.3898 109.658C65.5498 109.102 65.8538 108.66 66.3018 108.332C66.7538 108.004 67.3538 107.84 68.1018 107.84C68.6818 107.84 69.1858 107.94 69.6138 108.14C70.0458 108.336 70.3618 108.648 70.5618 109.076C70.6658 109.288 70.7298 109.512 70.7538 109.748C70.7778 109.984 70.7898 110.238 70.7898 110.51V114.5H69.6798V113.018L69.8958 113.21C69.6278 113.706 69.2858 114.076 68.8698 114.32C68.4578 114.56 67.9498 114.68 67.3458 114.68ZM67.5678 113.654C67.9238 113.654 68.2298 113.592 68.4858 113.468C68.7418 113.34 68.9478 113.178 69.1038 112.982C69.2598 112.786 69.3618 112.582 69.4098 112.37C69.4778 112.178 69.5158 111.962 69.5238 111.722C69.5358 111.482 69.5418 111.29 69.5418 111.146L69.9498 111.296C69.5538 111.356 69.1938 111.41 68.8698 111.458C68.5458 111.506 68.2518 111.554 67.9878 111.602C67.7278 111.646 67.4958 111.7 67.2918 111.764C67.1198 111.824 66.9658 111.896 66.8298 111.98C66.6978 112.064 66.5918 112.166 66.5118 112.286C66.4358 112.406 66.3978 112.552 66.3978 112.724C66.3978 112.892 66.4398 113.048 66.5238 113.192C66.6078 113.332 66.7358 113.444 66.9078 113.528C67.0798 113.612 67.2998 113.654 67.5678 113.654ZM76.8958 114.5V111.314C76.8958 111.062 76.8738 110.804 76.8298 110.54C76.7898 110.272 76.7098 110.024 76.5898 109.796C76.4738 109.568 76.3078 109.384 76.0918 109.244C75.8798 109.104 75.6018 109.034 75.2578 109.034C75.0338 109.034 74.8218 109.072 74.6218 109.148C74.4218 109.22 74.2458 109.338 74.0938 109.502C73.9458 109.666 73.8278 109.882 73.7398 110.15C73.6558 110.418 73.6138 110.744 73.6138 111.128L72.8338 110.834C72.8338 110.246 72.9438 109.728 73.1638 109.28C73.3838 108.828 73.6998 108.476 74.1118 108.224C74.5238 107.972 75.0218 107.846 75.6058 107.846C76.0538 107.846 76.4298 107.918 76.7338 108.062C77.0378 108.206 77.2838 108.396 77.4718 108.632C77.6638 108.864 77.8098 109.118 77.9098 109.394C78.0098 109.67 78.0778 109.94 78.1138 110.204C78.1498 110.468 78.1678 110.7 78.1678 110.9V114.5H76.8958ZM72.3418 114.5V108.02H73.4638V109.892H73.6138V114.5H72.3418ZM82.253 106.958V105.74H83.507V106.958H82.253ZM82.253 114.5V108.02H83.507V114.5H82.253ZM93.0728 114.5L93.0788 110.462C93.0788 109.994 92.9588 109.63 92.7188 109.37C92.4788 109.106 92.1628 108.974 91.7708 108.974C91.5308 108.974 91.3108 109.03 91.1107 109.142C90.9148 109.25 90.7548 109.414 90.6308 109.634C90.5108 109.85 90.4508 110.122 90.4508 110.45L89.8448 110.144C89.8368 109.688 89.9328 109.288 90.1328 108.944C90.3368 108.6 90.6128 108.334 90.9608 108.146C91.3088 107.954 91.6988 107.858 92.1308 107.858C92.8308 107.858 93.3728 108.068 93.7568 108.488C94.1408 108.908 94.3328 109.466 94.3328 110.162L94.3268 114.5H93.0728ZM85.3028 114.5V108.02H86.4188V109.892H86.5628V114.5H85.3028ZM89.1908 114.5L89.1968 110.486C89.1968 110.014 89.0768 109.644 88.8368 109.376C88.6008 109.108 88.2828 108.974 87.8828 108.974C87.4868 108.974 87.1668 109.11 86.9228 109.382C86.6828 109.654 86.5628 110.01 86.5628 110.45L85.9628 110.066C85.9628 109.642 86.0648 109.264 86.2688 108.932C86.4728 108.6 86.7488 108.338 87.0968 108.146C87.4448 107.954 87.8388 107.858 88.2788 107.858C88.7388 107.858 89.1308 107.956 89.4548 108.152C89.7788 108.344 90.0248 108.614 90.1928 108.962C90.3648 109.31 90.4508 109.714 90.4508 110.174L90.4448 114.5H89.1908ZM97.7208 114.68C97.2408 114.68 96.8388 114.592 96.5148 114.416C96.1908 114.236 95.9448 114 95.7768 113.708C95.6128 113.412 95.5308 113.088 95.5308 112.736C95.5308 112.408 95.5888 112.12 95.7048 111.872C95.8208 111.624 95.9928 111.414 96.2208 111.242C96.4488 111.066 96.7288 110.924 97.0608 110.816C97.3488 110.732 97.6748 110.658 98.0388 110.594C98.4028 110.53 98.7848 110.47 99.1848 110.414C99.5888 110.358 99.9888 110.302 100.385 110.246L99.9288 110.498C99.9368 109.99 99.8288 109.614 99.6048 109.37C99.3848 109.122 99.0048 108.998 98.4648 108.998C98.1248 108.998 97.8128 109.078 97.5288 109.238C97.2448 109.394 97.0468 109.654 96.9348 110.018L95.7648 109.658C95.9248 109.102 96.2288 108.66 96.6768 108.332C97.1288 108.004 97.7288 107.84 98.4768 107.84C99.0568 107.84 99.5608 107.94 99.9888 108.14C100.421 108.336 100.737 108.648 100.937 109.076C101.041 109.288 101.105 109.512 101.129 109.748C101.153 109.984 101.165 110.238 101.165 110.51V114.5H100.055V113.018L100.271 113.21C100.003 113.706 99.6608 114.076 99.2448 114.32C98.8328 114.56 98.3248 114.68 97.7208 114.68ZM97.9428 113.654C98.2988 113.654 98.6048 113.592 98.8608 113.468C99.1168 113.34 99.3228 113.178 99.4788 112.982C99.6348 112.786 99.7368 112.582 99.7848 112.37C99.8528 112.178 99.8908 111.962 99.8988 111.722C99.9108 111.482 99.9168 111.29 99.9168 111.146L100.325 111.296C99.9288 111.356 99.5688 111.41 99.2448 111.458C98.9208 111.506 98.6268 111.554 98.3628 111.602C98.1028 111.646 97.8708 111.7 97.6668 111.764C97.4948 111.824 97.3408 111.896 97.2048 111.98C97.0728 112.064 96.9668 112.166 96.8868 112.286C96.8108 112.406 96.7728 112.552 96.7728 112.724C96.7728 112.892 96.8148 113.048 96.8988 113.192C96.9828 113.332 97.1108 113.444 97.2828 113.528C97.4548 113.612 97.6748 113.654 97.9428 113.654ZM105.393 117.56C105.045 117.56 104.707 117.506 104.379 117.398C104.055 117.29 103.759 117.13 103.491 116.918C103.223 116.71 103.001 116.452 102.825 116.144L103.983 115.556C104.123 115.832 104.323 116.034 104.583 116.162C104.843 116.29 105.117 116.354 105.405 116.354C105.761 116.354 106.065 116.29 106.317 116.162C106.569 116.038 106.759 115.85 106.887 115.598C107.019 115.346 107.083 115.034 107.079 114.662V112.85H107.229V108.02H108.339V114.674C108.339 114.846 108.333 115.01 108.321 115.166C108.309 115.322 108.287 115.478 108.255 115.634C108.163 116.07 107.987 116.43 107.727 116.714C107.471 116.998 107.143 117.21 106.743 117.35C106.347 117.49 105.897 117.56 105.393 117.56ZM105.297 114.68C104.693 114.68 104.171 114.53 103.731 114.23C103.295 113.93 102.957 113.522 102.717 113.006C102.481 112.486 102.363 111.902 102.363 111.254C102.363 110.602 102.483 110.02 102.723 109.508C102.963 108.992 103.303 108.586 103.743 108.29C104.187 107.99 104.713 107.84 105.321 107.84C105.933 107.84 106.447 107.99 106.863 108.29C107.283 108.586 107.599 108.992 107.811 109.508C108.027 110.024 108.135 110.606 108.135 111.254C108.135 111.902 108.027 112.484 107.811 113C107.595 113.516 107.277 113.926 106.857 114.23C106.437 114.53 105.917 114.68 105.297 114.68ZM105.471 113.546C105.883 113.546 106.219 113.448 106.479 113.252C106.739 113.056 106.929 112.786 107.049 112.442C107.169 112.098 107.229 111.702 107.229 111.254C107.229 110.806 107.167 110.41 107.043 110.066C106.923 109.722 106.735 109.454 106.479 109.262C106.227 109.07 105.905 108.974 105.513 108.974C105.097 108.974 104.755 109.076 104.487 109.28C104.219 109.484 104.019 109.758 103.887 110.102C103.759 110.446 103.695 110.83 103.695 111.254C103.695 111.682 103.759 112.07 103.887 112.418C104.019 112.762 104.215 113.036 104.475 113.24C104.739 113.444 105.071 113.546 105.471 113.546ZM112.898 114.68C112.254 114.68 111.688 114.54 111.2 114.26C110.716 113.976 110.338 113.582 110.066 113.078C109.798 112.57 109.664 111.982 109.664 111.314C109.664 110.606 109.796 109.992 110.06 109.472C110.328 108.952 110.7 108.55 111.176 108.266C111.652 107.982 112.206 107.84 112.838 107.84C113.498 107.84 114.06 107.994 114.524 108.302C114.988 108.606 115.334 109.04 115.562 109.604C115.794 110.168 115.886 110.838 115.838 111.614H114.584V111.158C114.576 110.406 114.432 109.85 114.152 109.49C113.876 109.13 113.454 108.95 112.886 108.95C112.258 108.95 111.786 109.148 111.47 109.544C111.154 109.94 110.996 110.512 110.996 111.26C110.996 111.972 111.154 112.524 111.47 112.916C111.786 113.304 112.242 113.498 112.838 113.498C113.23 113.498 113.568 113.41 113.852 113.234C114.14 113.054 114.364 112.798 114.524 112.466L115.754 112.856C115.502 113.436 115.12 113.886 114.608 114.206C114.096 114.522 113.526 114.68 112.898 114.68ZM110.588 111.614V110.636H115.214V111.614H110.588ZM123.294 114.5C122.886 114.58 122.486 114.614 122.094 114.602C121.702 114.59 121.352 114.514 121.044 114.374C120.736 114.234 120.504 114.014 120.348 113.714C120.208 113.446 120.132 113.174 120.12 112.898C120.112 112.618 120.108 112.302 120.108 111.95V106.22H121.368V111.89C121.368 112.15 121.37 112.376 121.374 112.568C121.382 112.76 121.424 112.922 121.5 113.054C121.644 113.302 121.872 113.444 122.184 113.48C122.5 113.512 122.87 113.498 123.294 113.438V114.5ZM118.866 109.028V108.02H123.294V109.028H118.866ZM127.181 114.68C126.533 114.68 125.971 114.534 125.495 114.242C125.019 113.95 124.651 113.548 124.391 113.036C124.135 112.52 124.007 111.926 124.007 111.254C124.007 110.578 124.139 109.984 124.403 109.472C124.667 108.956 125.037 108.556 125.513 108.272C125.989 107.984 126.545 107.84 127.181 107.84C127.829 107.84 128.391 107.986 128.867 108.278C129.343 108.57 129.711 108.972 129.971 109.484C130.231 109.996 130.361 110.586 130.361 111.254C130.361 111.93 130.229 112.526 129.965 113.042C129.705 113.554 129.337 113.956 128.861 114.248C128.385 114.536 127.825 114.68 127.181 114.68ZM127.181 113.498C127.801 113.498 128.263 113.29 128.567 112.874C128.875 112.454 129.029 111.914 129.029 111.254C129.029 110.578 128.873 110.038 128.561 109.634C128.253 109.226 127.793 109.022 127.181 109.022C126.761 109.022 126.415 109.118 126.143 109.31C125.871 109.498 125.669 109.76 125.537 110.096C125.405 110.428 125.339 110.814 125.339 111.254C125.339 111.934 125.495 112.478 125.807 112.886C126.119 113.294 126.577 113.498 127.181 113.498ZM61.6297 130.674C61.1817 130.674 60.8057 130.602 60.5017 130.458C60.1977 130.314 59.9497 130.126 59.7577 129.894C59.5697 129.658 59.4257 129.402 59.3257 129.126C59.2257 128.85 59.1577 128.58 59.1217 128.316C59.0857 128.052 59.0677 127.82 59.0677 127.62V124.02H60.3397V127.206C60.3397 127.458 60.3597 127.718 60.3997 127.986C60.4437 128.25 60.5237 128.496 60.6397 128.724C60.7597 128.952 60.9257 129.136 61.1377 129.276C61.3537 129.416 61.6337 129.486 61.9777 129.486C62.2017 129.486 62.4137 129.45 62.6137 129.378C62.8137 129.302 62.9877 129.182 63.1357 129.018C63.2877 128.854 63.4057 128.638 63.4897 128.37C63.5777 128.102 63.6217 127.776 63.6217 127.392L64.4017 127.686C64.4017 128.274 64.2917 128.794 64.0717 129.246C63.8517 129.694 63.5357 130.044 63.1237 130.296C62.7117 130.548 62.2137 130.674 61.6297 130.674ZM63.7717 130.5V128.628H63.6217V124.02H64.8877V130.5H63.7717ZM69.6125 130.68C68.9925 130.68 68.4725 130.53 68.0525 130.23C67.6325 129.926 67.3145 129.516 67.0985 129C66.8825 128.484 66.7745 127.902 66.7745 127.254C66.7745 126.606 66.8805 126.024 67.0925 125.508C67.3085 124.992 67.6245 124.586 68.0405 124.29C68.4605 123.99 68.9765 123.84 69.5885 123.84C70.1965 123.84 70.7205 123.99 71.1605 124.29C71.6045 124.586 71.9465 124.992 72.1865 125.508C72.4265 126.02 72.5465 126.602 72.5465 127.254C72.5465 127.902 72.4265 128.486 72.1865 129.006C71.9505 129.522 71.6125 129.93 71.1725 130.23C70.7365 130.53 70.2165 130.68 69.6125 130.68ZM66.5645 133.38V124.02H67.6805V128.682H67.8245V133.38H66.5645ZM69.4385 129.546C69.8385 129.546 70.1685 129.444 70.4285 129.24C70.6925 129.036 70.8885 128.762 71.0165 128.418C71.1485 128.07 71.2145 127.682 71.2145 127.254C71.2145 126.83 71.1485 126.446 71.0165 126.102C70.8885 125.758 70.6905 125.484 70.4225 125.28C70.1545 125.076 69.8125 124.974 69.3965 124.974C69.0045 124.974 68.6805 125.07 68.4245 125.262C68.1725 125.454 67.9845 125.722 67.8605 126.066C67.7405 126.41 67.6805 126.806 67.6805 127.254C67.6805 127.702 67.7405 128.098 67.8605 128.442C67.9805 128.786 68.1705 129.056 68.4305 129.252C68.6905 129.448 69.0265 129.546 69.4385 129.546ZM73.9913 130.5V121.68H75.2453V130.5H73.9913ZM79.861 130.68C79.213 130.68 78.651 130.534 78.175 130.242C77.699 129.95 77.331 129.548 77.071 129.036C76.815 128.52 76.687 127.926 76.687 127.254C76.687 126.578 76.819 125.984 77.083 125.472C77.347 124.956 77.717 124.556 78.193 124.272C78.669 123.984 79.225 123.84 79.861 123.84C80.509 123.84 81.071 123.986 81.547 124.278C82.023 124.57 82.391 124.972 82.651 125.484C82.911 125.996 83.041 126.586 83.041 127.254C83.041 127.93 82.909 128.526 82.645 129.042C82.385 129.554 82.017 129.956 81.541 130.248C81.065 130.536 80.505 130.68 79.861 130.68ZM79.861 129.498C80.481 129.498 80.943 129.29 81.247 128.874C81.555 128.454 81.709 127.914 81.709 127.254C81.709 126.578 81.553 126.038 81.241 125.634C80.933 125.226 80.473 125.022 79.861 125.022C79.441 125.022 79.095 125.118 78.823 125.31C78.551 125.498 78.349 125.76 78.217 126.096C78.085 126.428 78.019 126.814 78.019 127.254C78.019 127.934 78.175 128.478 78.487 128.886C78.799 129.294 79.257 129.498 79.861 129.498ZM86.1895 130.68C85.7095 130.68 85.3075 130.592 84.9835 130.416C84.6595 130.236 84.4135 130 84.2455 129.708C84.0815 129.412 83.9995 129.088 83.9995 128.736C83.9995 128.408 84.0575 128.12 84.1735 127.872C84.2895 127.624 84.4615 127.414 84.6895 127.242C84.9175 127.066 85.1975 126.924 85.5295 126.816C85.8175 126.732 86.1435 126.658 86.5075 126.594C86.8715 126.53 87.2535 126.47 87.6535 126.414C88.0575 126.358 88.4575 126.302 88.8535 126.246L88.3975 126.498C88.4055 125.99 88.2975 125.614 88.0735 125.37C87.8535 125.122 87.4735 124.998 86.9335 124.998C86.5935 124.998 86.2815 125.078 85.9975 125.238C85.7135 125.394 85.5155 125.654 85.4035 126.018L84.2335 125.658C84.3935 125.102 84.6975 124.66 85.1455 124.332C85.5975 124.004 86.1975 123.84 86.9455 123.84C87.5255 123.84 88.0295 123.94 88.4575 124.14C88.8895 124.336 89.2055 124.648 89.4055 125.076C89.5095 125.288 89.5735 125.512 89.5975 125.748C89.6215 125.984 89.6335 126.238 89.6335 126.51V130.5H88.5235V129.018L88.7395 129.21C88.4715 129.706 88.1295 130.076 87.7135 130.32C87.3015 130.56 86.7935 130.68 86.1895 130.68ZM86.4115 129.654C86.7675 129.654 87.0735 129.592 87.3295 129.468C87.5855 129.34 87.7915 129.178 87.9475 128.982C88.1035 128.786 88.2055 128.582 88.2535 128.37C88.3215 128.178 88.3595 127.962 88.3675 127.722C88.3795 127.482 88.3855 127.29 88.3855 127.146L88.7935 127.296C88.3975 127.356 88.0375 127.41 87.7135 127.458C87.3895 127.506 87.0955 127.554 86.8315 127.602C86.5715 127.646 86.3395 127.7 86.1355 127.764C85.9635 127.824 85.8095 127.896 85.6735 127.98C85.5415 128.064 85.4355 128.166 85.3555 128.286C85.2795 128.406 85.2415 128.552 85.2415 128.724C85.2415 128.892 85.2835 129.048 85.3675 129.192C85.4515 129.332 85.5795 129.444 85.7515 129.528C85.9235 129.612 86.1435 129.654 86.4115 129.654ZM93.7656 130.68C93.1616 130.68 92.6396 130.53 92.1996 130.23C91.7636 129.93 91.4256 129.522 91.1856 129.006C90.9496 128.486 90.8316 127.902 90.8316 127.254C90.8316 126.602 90.9516 126.02 91.1916 125.508C91.4316 124.992 91.7716 124.586 92.2116 124.29C92.6556 123.99 93.1816 123.84 93.7896 123.84C94.4016 123.84 94.9156 123.99 95.3316 124.29C95.7516 124.586 96.0676 124.992 96.2796 125.508C96.4956 126.024 96.6036 126.606 96.6036 127.254C96.6036 127.902 96.4956 128.484 96.2796 129C96.0636 129.516 95.7456 129.926 95.3256 130.23C94.9056 130.53 94.3856 130.68 93.7656 130.68ZM93.9396 129.546C94.3516 129.546 94.6876 129.448 94.9476 129.252C95.2076 129.056 95.3976 128.786 95.5176 128.442C95.6376 128.098 95.6976 127.702 95.6976 127.254C95.6976 126.806 95.6356 126.41 95.5116 126.066C95.3916 125.722 95.2036 125.454 94.9476 125.262C94.6956 125.07 94.3736 124.974 93.9816 124.974C93.5656 124.974 93.2236 125.076 92.9556 125.28C92.6876 125.484 92.4876 125.758 92.3556 126.102C92.2276 126.446 92.1636 126.83 92.1636 127.254C92.1636 127.682 92.2276 128.07 92.3556 128.418C92.4876 128.762 92.6836 129.036 92.9436 129.24C93.2076 129.444 93.5396 129.546 93.9396 129.546ZM95.6976 130.5V125.838H95.5536V121.86H96.8136V130.5H95.6976Z" fill="#505050"/>
</svg>
